<svg xmlns="http://www.w3.org/2000/svg" xmlns:xlink="http://www.w3.org/1999/xlink" version="1.1" id="Layer_1" x="0px" y="0px" width="80px" height="80px" viewBox="4.0 -8.0 80.0 108.0" enable-background="new 0 0 80 80" xml:space="preserve">
<g>
	<path d="M43.26,35.256c0,3.51-2.84,6.35-6.34,6.35s-6.35-2.84-6.35-6.35c0-3.5,2.85-6.34,6.35-6.34S43.26,31.756,43.26,35.256z"/>
	<path d="M40,10.287c-15.67,0-28.37,12.71-28.37,28.38c0,15.669,12.7,28.38,28.37,28.38s28.37-12.711,28.37-28.38   C68.37,22.997,55.67,10.287,40,10.287z M54.55,53.547c-0.81,0.799-1.859,1.209-2.91,1.209c-1.06,0-2.12-0.41-2.92-1.209   l-6.29-6.301c-0.119-0.119-0.199-0.279-0.24-0.449c-1.609,0.74-3.39,1.15-5.27,1.15c-7,0-12.68-5.682-12.68-12.691   c0-7,5.68-12.68,12.68-12.68s12.69,5.68,12.69,12.68c0,2.19-0.551,4.24-1.521,6.031c0.061,0.029,0.12,0.08,0.17,0.129l6.29,6.301   C56.17,49.326,56.17,51.936,54.55,53.547z"/>
</g>
<text x="0.0" y="94.0" font-size="4.0" font-weight="bold" font-family="Helvetica Neue, Helvetica, Arial-Unicode, Arial, Sans-serif" fill="#000000">Created by Maurizio Pedrazzoli</text><text x="0.0" y="98.0" font-size="4.0" font-weight="bold" font-family="Helvetica Neue, Helvetica, Arial-Unicode, Arial, Sans-serif" fill="#000000">from the Noun Project</text></svg>